<?xml version="1.0" encoding="utf-8"?>
<!-- Generator: Adobe Illustrator 24.2.3, SVG Export Plug-In . SVG Version: 6.00 Build 0)  -->
<svg version="1.1" id="Layer_1" xmlns="http://www.w3.org/2000/svg" xmlns:xlink="http://www.w3.org/1999/xlink" x="0px"
	y="0px" viewBox="0 0 492 492" style="enable-background:new 0 0 492 492;" xml:space="preserve">
	<g>
		<g>
			<path d="M484.1,125.5L468,109.3c-5.1-5.1-11.8-7.9-19-7.9c-7.2,0-14,2.8-19,7.9L245.9,293.4L62,109.5c-5.1-5.1-11.8-7.9-19-7.9
			s-14,2.8-19,7.9L7.9,125.7c-5.1,5.1-7.9,11.8-7.9,19s2.8,14,7.9,19l218.9,218.9c5.1,5.1,11.8,7.8,19,7.8c7.4,0,14.1-2.8,19.2-7.8
			l219.1-219.1C494.6,153,494.6,136,484.1,125.5z" />
		</g>
	</g>
</svg>