<?xml version="1.0" encoding="iso-8859-1"?>
<!-- Generator: Adobe Illustrator 19.0.0, SVG Export Plug-In . SVG Version: 6.00 Build 0)  -->
<svg version="1.1" id="Layer_1" xmlns="http://www.w3.org/2000/svg" xmlns:xlink="http://www.w3.org/1999/xlink" x="0px" y="0px"
	 viewBox="0 0 512 512" style="enable-background:new 0 0 512 512;" xml:space="preserve">
<g>
	<g>
		<path d="M434.697,209.409c-3.699-1.644-7.699-0.957-10.727,1.749l-96.079,86.611L191.051,190.186
			c-3.128-2.466-7.338-2.892-10.897-1.113L76.876,240.401c-3.479,1.739-6.296,5.293-6.296,9.183v225.842
			c0,5.669,5.233,10.799,10.897,10.805l349.671,0.744c0.01,0,0.01,0,0.01,0c2.717,0,4.692-1.621,6.616-3.541
			c1.925-1.93,2.366-5.08,2.366-7.802V218.787C440.141,214.732,438.397,211.058,434.697,209.409z M419.61,465.361l-328.498-0.195
			V255.93l91.809-45.584l138.916,108.901c3.95,3.093,9.023,2.902,12.732-0.441l85.042-76.972V465.361z"/>
	</g>
</g>
<g>
	<g>
		<path d="M503.018,25.025h-92.39c-5.674,0-10.266,4.596-10.266,10.266c0,5.669,4.592,10.266,10.266,10.266h67.147L318.147,195.153
			L201.988,88.352c-3.378-3.088-8.391-3.724-12.29-1.354L4.917,199.84c-4.842,2.957-6.366,9.238-3.409,14.075
			c1.935,3.168,5.313,4.892,8.772,4.892c1.824,0,3.669-0.496,5.343-1.514l178.184-108.901L311.3,216.093
			c3.96,3.624,9.413,3.593,13.333-0.096L491.469,58.37v57.761c0,5.669,4.592,10.266,10.266,10.266
			c5.674,0,10.266-4.596,10.266-10.266V34.007C512,28.338,508.692,25.025,503.018,25.025z"/>
	</g>
</g>
<g>
</g>
<g>
</g>
<g>
</g>
<g>
</g>
<g>
</g>
<g>
</g>
<g>
</g>
<g>
</g>
<g>
</g>
<g>
</g>
<g>
</g>
<g>
</g>
<g>
</g>
<g>
</g>
<g>
</g>
</svg>
