<svg id="Capa_1" enable-background="new 0 0 512 512" height="512" viewBox="0 0 512 512" width="512"
     xmlns="http://www.w3.org/2000/svg">
  <path
    d="m99.833 411.018h402.167v-197.086h-402.167zm275.847-163.216h81.987v30h-51.987v27.959h41.32v30h-41.32v42.958h-30zm-118.272 0h47.649c24.297 0 44.063 19.767 44.063 44.063v42.368c0 24.296-19.767 44.063-44.063 44.063h-47.649zm-115.2 0h47.733c24.25 0 43.979 19.729 43.979 43.979s-19.729 43.979-43.979 43.979h-17.733v42.958h-30z"/>
  <path
    d="m203.921 291.782c0-7.708-6.271-13.979-13.979-13.979h-17.733v27.959h17.733c7.708-.001 13.979-6.272 13.979-13.98z"/>
  <path
    d="m319.121 334.233v-42.368c0-7.754-6.309-14.063-14.063-14.063h-17.649v70.494h17.649c7.754 0 14.063-6.308 14.063-14.063z"/>
  <path
    d="m69.833 441.018v-257.086h323.167v-183.932h-241.588v141.369h-141.412v370.631h383v-70.982zm118.231-328.349h137.436v30h-137.436z"/>
  <path d="m121.412.042-111.325 111.327h111.325z"/>
</svg>
