<?xml version="1.0" encoding="utf-8"?>
<!-- Generator: Adobe Illustrator 24.2.3, SVG Export Plug-In . SVG Version: 6.00 Build 0)  -->
<svg version="1.1" id="Layer_1" xmlns="http://www.w3.org/2000/svg" xmlns:xlink="http://www.w3.org/1999/xlink" x="0px" y="0px"
	 viewBox="0 0 512 512" style="enable-background:new 0 0 512 512;" xml:space="preserve">
<path d="M166.5,236h224.1l-44.1-43.8c-7.8-7.8-7.9-20.4-0.1-28.3c7.8-7.8,20.4-7.9,28.3-0.1l57.2,56.8c19.5,19.5,19.5,51.2,0,70.8
	l-57.2,56.8c-3.9,3.9-9,5.8-14.1,5.8c-5.1,0-10.3-2-14.2-5.9c-7.8-7.8-7.7-20.5,0.1-28.3l44.1-43.8H166.5c-11,0-20-9-20-20
	C146.5,245,155.5,236,166.5,236z M65.5,20v472c0,11,9,20,20,20s20-9,20-20V20c0-11-9-20-20-20C74.5,0,65.5,9,65.5,20z"/>
</svg>
