<?xml version="1.0" encoding="iso-8859-1"?>
<!-- Generator: Adobe Illustrator 19.0.0, SVG Export Plug-In . SVG Version: 6.00 Build 0)  -->
<svg xmlns="http://www.w3.org/2000/svg" xmlns:xlink="http://www.w3.org/1999/xlink" version="1.1" id="Layer_1" x="0px" y="0px" viewBox="0 0 512 512" style="enable-background:new 0 0 512 512;" xml:space="preserve" width="512" height="512">
<path d="M365.485,256c0,11.046-8.954,20-20,20H121.432l44.108,43.81c7.837,7.784,7.88,20.447,0.097,28.284  c-3.909,3.936-9.05,5.906-14.19,5.906c-5.097,0-10.192-1.935-14.094-5.81l-57.175-56.787c-19.543-19.543-19.543-51.264-0.049-70.759  l57.224-56.835c7.836-7.783,20.499-7.741,28.284,0.097c7.783,7.837,7.74,20.5-0.097,28.284L121.432,236h224.053  C356.531,236,365.485,244.954,365.485,256z M426.485,0c-11.046,0-20,8.954-20,20v472c0,11.046,8.954,20,20,20s20-8.954,20-20V20  C446.485,8.954,437.531,0,426.485,0z"/>















</svg>
